<?xml version="1.0" encoding="utf-8"?>
<!-- Generator: Adobe Illustrator 21.1.0, SVG Export Plug-In . SVG Version: 6.00 Build 0)  -->
<svg version="1.1" id="Layer_1" xmlns="http://www.w3.org/2000/svg" xmlns:xlink="http://www.w3.org/1999/xlink" x="0px" y="0px"
	 viewBox="0 0 233 49" style="enable-background:new 0 0 233 49;" xml:space="preserve">
<style type="text/css">
	.st0{fill:#FFFFFF;}
</style>
<g id="Слой_2">
	<path id="Artwork_1_1_" class="st0" d="M118,19.1c0.3-0.3,0.6-0.4,1-0.4c0.8,0,1.4,0.6,1.4,1.4c0,0,0,0,0,0v8.8
		c0,0.8-0.6,1.4-1.4,1.4c0,0,0,0,0,0c-0.4,0-0.8-0.1-1-0.4c-0.3-0.3-0.4-0.6-0.4-1v-8.8C117.5,19.7,117.7,19.4,118,19.1z M106.5,19
		v5.1h1.5c0.4,0,0.8-0.1,1-0.4c0.3-0.3,0.4-0.6,0.4-1v-2.3c0-0.9-0.5-1.4-1.4-1.4H106.5z M95.5,19v11.2H97c0.4,0,0.7-0.1,1-0.4
		c0.3-0.3,0.4-0.6,0.4-1v-8.4c0-0.4-0.1-0.7-0.4-1c-0.3-0.3-0.6-0.4-1-0.4L95.5,19z M72.7,26.5h1.9l-0.9-6.3L72.7,26.5z M134.4,18.9
		v11.2h1.5c0.4,0,0.7-0.1,1-0.4c0.3-0.3,0.4-0.6,0.4-1v-8.4c0-0.4-0.1-0.7-0.4-1c-0.3-0.3-0.6-0.4-1-0.4H134.4z M69.1,32.5h2.6
		l0.6-3.7h2.6l0.6,3.7h2.6l-2.8-16h-3.5L69.1,32.5z M104,32.5h2.5v-6h1.7l1.5,6h2.7l-1.9-7c0.9-0.7,1.4-1.8,1.3-2.9v-2.3
		c0-1.2-0.3-2.1-0.9-2.7c-0.7-0.7-1.7-1.1-3.1-1.1h-4V32.5z M126.2,32.5h2.5v-16h-2.5V32.5z M87.3,27.3L84,16.5h-2.8v16h2.5V22.3
		l3.5,10.3h2.7v-16h-2.5V27.3z M93,32.5h3.9c1.1,0,2.1-0.4,2.8-1.1c0.8-0.7,1.2-1.7,1.2-2.7v-8.4c0-1-0.4-2-1.1-2.7
		c-0.7-0.7-1.7-1.1-2.8-1.1H93V32.5z M131.9,32.5h3.9c1.1,0,2.1-0.4,2.8-1.1c0.8-0.7,1.2-1.7,1.2-2.7v-8.4c0-1-0.4-2-1.1-2.7
		c-0.7-0.7-1.7-1.1-2.8-1.1h-3.9V32.5z M116.2,31.6c0.7,0.7,1.8,1.1,2.8,1.1c2.2,0,4-1.7,4-3.8c0,0,0,0,0,0v-8.8
		c0.1-2.1-1.6-3.9-3.8-4c-2.2-0.1-4,1.6-4.1,3.7c0,0.1,0,0.2,0,0.3v8.7C115.1,29.9,115.5,30.9,116.2,31.6L116.2,31.6z M143.5,14
		c1.3,0,2.3,1,2.3,2.2l0,0v16.5c0,1.2-1,2.2-2.3,2.2l0,0H65.3C64,35,63,34,63,32.8V16.2c0-1.2,1-2.2,2.3-2.2H143.5z"/>
	<path class="st0" d="M154.8,26.3h1.9l-0.9-6.3L154.8,26.3z M157.4,16.4l2.8,16h-2.6l-0.6-3.7h-2.6l-0.6,3.7h-2.6l2.8-16H157.4z
		 M166.9,16.4v12.4c0,0.8-0.6,1.4-1.4,1.4c0,0,0,0,0,0c-0.4,0-0.8-0.1-1-0.4c-0.3-0.3-0.4-0.6-0.4-1V16.4h-2.5v12.4
		c0,2.1,1.8,3.8,3.9,3.8c0,0,0,0,0,0c1.1,0,2.1-0.4,2.8-1.1c0.8-0.7,1.2-1.7,1.2-2.7V16.4H166.9z M171.1,16.4v2.4h2.7v13.6h2.5V18.8
		h2.7v-2.4H171.1z M186.1,16.4v6.8h-3v-6.8h-2.5v16h2.5v-6.8h3v6.8h2.5v-16H186.1z M193.4,29.7c0.3,0.3,0.6,0.4,1,0.4
		c0.8,0,1.4-0.6,1.4-1.4c0,0,0,0,0,0v-8.8c0-0.8-0.6-1.4-1.4-1.4c0,0,0,0,0,0c-0.4,0-0.7,0.1-1,0.4c-0.3,0.3-0.4,0.6-0.4,1v8.8
		C192.9,29.1,193.1,29.4,193.4,29.7z M191.6,17.3c1.6-1.5,4.1-1.5,5.6,0c0.7,0.7,1.2,1.7,1.2,2.7v8.7c0,2.1-1.8,3.8-4,3.8
		s-4-1.7-4-3.8V20C190.5,19,190.9,18,191.6,17.3L191.6,17.3z M202.8,23.9h1.5c0.4,0,0.8-0.1,1-0.4c0.3-0.3,0.4-0.6,0.4-1v-2.3
		c0-0.9-0.5-1.4-1.4-1.4h-1.5L202.8,23.9z M204.2,16.3c1.4,0,2.4,0.4,3.1,1.1c0.6,0.6,0.9,1.6,0.9,2.7v2.3c0,1.1-0.5,2.2-1.3,2.9
		l1.9,7H206l-1.5-6h-1.7v6h-2.5v-16L204.2,16.3z M210.4,32.4h2.5v-16h-2.5L210.4,32.4z M214.6,16.3v2.4h2.7v13.6h2.5V18.8h2.7v-2.4
		L214.6,16.3z M230.2,16.3l-1.8,5.8l-1.9-5.8h-2.8l3.4,9.3v6.7h2.5v-6.7l3.4-9.3L230.2,16.3z"/>
	<path class="st0" d="M38.1,22.7C37.5,23,36.9,23,36.3,23c-1.5-0.3-3.7-3.5-3.3-5.3c0.2-1.2,2.4-1.2,2.4-1.2
		c-1.2-1.8-2.9-3.3-4.9-4.2l0.9-3.3l-0.2-0.2l-1.8,3c-1.6-0.5-3.2-0.8-4.9-0.7c-0.9,0-1.9,0.1-2.8,0.3l-3.1-3.9l0,0l-0.2,0.2
		l1.8,4.1c-5.1,1.9-7.9,6.8-7.9,11.7c9.9-1.9,23.3,1.3,26,2.8C38.4,25.2,38.3,23.9,38.1,22.7z M24.9,22c-3.6-0.4-4.1-2.7-4-3.9
		c0.1-2.9,1.8-3.2,3.6-3.2c2.3,0,5.5,0.6,6.4,2.3C31.7,18.9,27.7,22.3,24.9,22z"/>
	<path class="st0" d="M38.1,22.7C37.5,23,36.9,23,36.3,23c-1.5-0.3-3.7-3.5-3.3-5.3c0.2-1.2,2.4-1.2,2.4-1.2
		c-1.2-1.8-2.9-3.3-4.9-4.2l0.9-3.3l-0.2-0.2l-1.8,3c-1.6-0.5-3.2-0.8-4.9-0.7c-0.9,0-1.9,0.1-2.8,0.3l-3.1-3.9l0,0l-0.2,0.2
		l1.8,4.1c-5.1,1.9-7.9,6.8-7.9,11.7c9.9-1.9,23.3,1.3,26,2.8C38.4,25.2,38.3,23.9,38.1,22.7z M24.9,22c-3.6-0.4-4.1-2.7-4-3.9
		c0.1-2.9,1.8-3.2,3.6-3.2c2.3,0,5.5,0.6,6.4,2.3C31.7,18.9,27.7,22.3,24.9,22z"/>
	<path class="st0" d="M38.1,22.7C37.5,23,36.9,23,36.3,23c-1.5-0.3-3.7-3.5-3.3-5.3c0.2-1.2,2.4-1.2,2.4-1.2
		c-1.2-1.8-2.9-3.3-4.9-4.2l0.9-3.3l-0.2-0.2l-1.8,3c-1.6-0.5-3.2-0.8-4.9-0.7c-0.9,0-1.9,0.1-2.8,0.3l-3.1-3.9l0,0l-0.2,0.2
		l1.8,4.1c-5.1,1.9-7.9,6.8-7.9,11.7c9.9-1.9,23.3,1.3,26,2.8C38.4,25.2,38.3,23.9,38.1,22.7z M24.9,22c-3.6-0.4-4.1-2.7-4-3.9
		c0.1-2.9,1.8-3.2,3.6-3.2c2.3,0,5.5,0.6,6.4,2.3C31.7,18.9,27.7,22.3,24.9,22z"/>
	<path class="st0" d="M24.5,49C11,49,0,38,0,24.5S11,0,24.5,0S49,11,49,24.5c0,0,0,0,0,0C49,38,38,49,24.5,49z M14,44.1
		c0.4,0.2,0.8,0.4,1.2,0.6l0.1,0l0.2,0.1l0.2,0.1l0.2,0.1l0.1,0c2.4-0.5,4.8-0.9,7.2-1.1l0.5,0c1.6-0.1,3.3-0.2,5-0.2h0.5
		c1.1,0,2.3,0,3.4,0.1c0.4,0,0.7,0,1.1,0.1c0.5,0,1,0.1,1.6,0.1h0.1l0.1,0c0,0,0.1,0,0.1,0c0.2-0.1,0.3-0.2,0.5-0.3
		c0.2-0.1,0.3-0.2,0.5-0.3c0.2-0.1,0.4-0.2,0.6-0.4l0.1-0.1l0.7-0.5L37,42.3c-1.2-0.1-2.5-0.2-3.7-0.3c-1.3-0.1-2.5-0.1-3.8-0.1
		h-0.5c-1.7,0-3.4,0.1-5,0.2c-0.5,0-1,0.1-1.4,0.1c-0.1,0-0.2,0-0.4,0c-2.6,0.3-5.1,0.7-7.7,1.3c0.1-0.7,0-1.9-1.1-3.7l2.3-0.6
		l0.1-0.1c0.6-0.3,1.1-0.8,1.4-1.4c0.5-0.8,1-2.2,0.7-4.3c-0.2-1.7-0.7-3-1.4-3.9C16,28.8,15,28.3,14,28.3c-0.1,0-0.2,0-0.3,0
		c-0.2,0-0.3,0-0.5,0.1c0-0.1,0-0.1,0-0.2c2.3-0.6,5.5-0.9,8.9-0.9c5.7,0,11.5,0.9,15.8,2.4c0.7,3.6,1.1,7.2,1.4,10.8l0,0.7l0.5-0.4
		c0.3-0.3,0.7-0.7,1-1l0.1-0.1v-0.1c-0.2-2.4-0.5-4.8-0.8-7c1.2,0.5,2.3,1.1,3.3,1.9c0.2,0.1,0.4,0.3,0.5,0.4l0.3,0.2l0.2-0.3
		c1.6-3.1,2.4-6.5,2.3-10c0-12.3-9.9-22.3-22.2-22.3c-12.3,0-22.3,9.9-22.3,22.2c0,3.3,0.7,6.6,2.2,9.6l0.2,0.4l0.3-0.2
		c1.7-1.4,5.1-3.7,9-4.2H14c0.8,0,1.9,1,2.2,3.7c0.3,2.8-1,3.7-1.2,3.8l-3,0.8c-0.5-0.4-1.5-1.2-2-1.2h0l-0.6,0l0.4,0.5
		c3.3,4,3,5.4,3,5.5l-0.1,0.2l0.2,0.1c0.3,0.2,0.6,0.4,0.9,0.5l0,0L14,44.1L14,44.1z"/>
</g>
</svg>
