<?xml version="1.0" encoding="utf-8"?>
<!-- Generator: Adobe Illustrator 21.1.0, SVG Export Plug-In . SVG Version: 6.00 Build 0)  -->
<svg version="1.1" id="Layer_1" xmlns="http://www.w3.org/2000/svg" xmlns:xlink="http://www.w3.org/1999/xlink" x="0px" y="0px"
	 viewBox="0 0 168 35" style="enable-background:new 0 0 168 35;" xml:space="preserve">
<style type="text/css">
	.st0{fill:#FFFFFF;}
</style>
<g id="Слой_2">
	<path id="Artwork_1_1_" class="st0" d="M84.3,13.6c0.2-0.2,0.4-0.3,0.7-0.3c0.6,0,1,0.4,1,1l0,0v6.3c0,0.6-0.4,1-1,1l0,0
		c-0.3,0-0.6-0.1-0.7-0.3c-0.2-0.2-0.3-0.4-0.3-0.7v-6.3C83.9,14.1,84.1,13.9,84.3,13.6z M76.1,13.6v3.6h1.1c0.3,0,0.6-0.1,0.7-0.3
		c0.2-0.2,0.3-0.4,0.3-0.7v-1.6c0-0.6-0.4-1-1-1C77.1,13.6,76.1,13.6,76.1,13.6z M68.2,13.6v8h1.1c0.3,0,0.5-0.1,0.7-0.3
		s0.3-0.4,0.3-0.7v-6c0-0.3-0.1-0.5-0.3-0.7c-0.2-0.2-0.4-0.3-0.7-0.3H68.2z M51.9,18.9h1.4l-0.6-4.5L51.9,18.9z M96,13.5v8h1.1
		c0.3,0,0.5-0.1,0.7-0.3c0.2-0.2,0.3-0.4,0.3-0.7v-6c0-0.3-0.1-0.5-0.3-0.7c-0.2-0.2-0.4-0.3-0.7-0.3H96z M49.4,23.2h1.9l0.4-2.6
		h1.9l0.4,2.6h1.9l-2-11.4h-2.5L49.4,23.2z M74.3,23.2h1.8v-4.3h1.2l1.1,4.3h1.9l-1.4-5c0.6-0.5,1-1.3,0.9-2.1v-1.6
		c0-0.9-0.2-1.5-0.6-1.9c-0.5-0.5-1.2-0.8-2.2-0.8h-2.9v11.4H74.3z M90.1,23.2h1.8V11.8h-1.8V23.2z M62.4,19.5L60,11.8h-2v11.4h1.8
		v-7.3l2.5,7.4h1.9V11.9h-1.8L62.4,19.5L62.4,19.5z M66.4,23.2h2.8c0.8,0,1.5-0.3,2-0.8c0.6-0.5,0.9-1.2,0.9-1.9v-6
		c0-0.7-0.3-1.4-0.8-1.9s-1.2-0.8-2-0.8h-2.9V23.2z M94.2,23.2H97c0.8,0,1.5-0.3,2-0.8c0.6-0.5,0.9-1.2,0.9-1.9v-6
		c0-0.7-0.3-1.4-0.8-1.9s-1.2-0.8-2-0.8h-2.8L94.2,23.2L94.2,23.2z M83,22.6c0.5,0.5,1.3,0.8,2,0.8c1.6,0,2.9-1.2,2.9-2.7l0,0v-6.3
		c0.1-1.5-1.1-2.8-2.7-2.9s-2.9,1.1-2.9,2.6c0,0.1,0,0.1,0,0.2v6.2C82.2,21.4,82.5,22.1,83,22.6L83,22.6z M102.5,10
		c0.9,0,1.6,0.7,1.6,1.6l0,0v11.8c0,0.9-0.7,1.6-1.6,1.6l0,0H46.6c-0.9,0-1.6-0.7-1.6-1.6V11.6c0-0.9,0.7-1.6,1.6-1.6H102.5z"/>
	<path class="st0" d="M110.6,18.8h1.4l-0.6-4.5L110.6,18.8z M112.4,11.7l2,11.4h-1.9l-0.4-2.6h-1.9l-0.4,2.6H108l2-11.4
		C110,11.7,112.4,11.7,112.4,11.7z M119.2,11.7v8.9c0,0.6-0.4,1-1,1l0,0c-0.3,0-0.6-0.1-0.7-0.3c-0.2-0.2-0.3-0.4-0.3-0.7v-8.9h-1.8
		v8.9c0,1.5,1.3,2.7,2.8,2.7l0,0c0.8,0,1.5-0.3,2-0.8c0.6-0.5,0.9-1.2,0.9-1.9v-8.9C121.1,11.7,119.2,11.7,119.2,11.7z M122.2,11.7
		v1.7h1.9v9.7h1.8v-9.7h1.9v-1.7C127.8,11.7,122.2,11.7,122.2,11.7z M132.9,11.7v4.9h-2.1v-4.9H129v11.4h1.8v-4.9h2.1v4.9h1.8V11.7
		C134.7,11.7,132.9,11.7,132.9,11.7z M138.1,21.2c0.2,0.2,0.4,0.3,0.7,0.3c0.6,0,1-0.4,1-1l0,0v-6.3c0-0.6-0.4-1-1-1l0,0
		c-0.3,0-0.5,0.1-0.7,0.3s-0.3,0.4-0.3,0.7v6.3C137.8,20.8,137.9,21,138.1,21.2z M136.9,12.4c1.1-1.1,2.9-1.1,4,0
		c0.5,0.5,0.9,1.2,0.9,1.9v6.2c0,1.5-1.3,2.7-2.9,2.7S136,22,136,20.5v-6.2C136.1,13.6,136.4,12.9,136.9,12.4L136.9,12.4z
		 M144.9,17.1h1.1c0.3,0,0.6-0.1,0.7-0.3c0.2-0.2,0.3-0.4,0.3-0.7v-1.6c0-0.6-0.4-1-1-1h-1.1V17.1z M145.9,11.6c1,0,1.7,0.3,2.2,0.8
		c0.4,0.4,0.6,1.1,0.6,1.9V16c0,0.8-0.4,1.6-0.9,2.1l1.4,5h-2l-1.1-4.3h-1.2v4.3h-1.8V11.6H145.9z M150.3,23.1h1.8V11.7h-1.8V23.1z
		 M153.3,11.6v1.7h1.9V23h1.8v-9.6h1.9v-1.7L153.3,11.6z M164.4,11.6l-1.3,4.1l-1.4-4.1h-2l2.4,6.6V23h1.8v-4.8l2.4-6.6H164.4z"/>
	<path class="st0" d="M27.2,16.2c-0.4,0.2-0.9,0.2-1.3,0.2c-1.1-0.2-2.6-2.5-2.4-3.8c0.1-0.9,1.7-0.9,1.7-0.9
		c-0.9-1.3-2.1-2.4-3.5-3l0.6-2.4l-0.1-0.1L21,8.4c-1.1-0.4-2.3-0.6-3.5-0.5c-0.6,0-1.4,0.1-2,0.2l-2.2-2.8l0,0l-0.1,0.1l1.3,2.9
		c-3.6,1.4-5.6,4.9-5.6,8.4c7.1-1.4,16.6,0.9,18.6,2C27.4,18,27.4,17.1,27.2,16.2z M17.8,15.7c-2.6-0.3-2.9-1.9-2.9-2.8
		c0.1-2.1,1.3-2.3,2.6-2.3c1.6,0,3.9,0.4,4.6,1.6C22.6,13.5,19.8,15.9,17.8,15.7z"/>
	<path class="st0" d="M27.2,16.2c-0.4,0.2-0.9,0.2-1.3,0.2c-1.1-0.2-2.6-2.5-2.4-3.8c0.1-0.9,1.7-0.9,1.7-0.9
		c-0.9-1.3-2.1-2.4-3.5-3l0.6-2.4l-0.1-0.1L21,8.4c-1.1-0.4-2.3-0.6-3.5-0.5c-0.6,0-1.4,0.1-2,0.2l-2.2-2.8l0,0l-0.1,0.1l1.3,2.9
		c-3.6,1.4-5.6,4.9-5.6,8.4c7.1-1.4,16.6,0.9,18.6,2C27.4,18,27.4,17.1,27.2,16.2z M17.8,15.7c-2.6-0.3-2.9-1.9-2.9-2.8
		c0.1-2.1,1.3-2.3,2.6-2.3c1.6,0,3.9,0.4,4.6,1.6C22.6,13.5,19.8,15.9,17.8,15.7z"/>
	<path class="st0" d="M27.2,16.2c-0.4,0.2-0.9,0.2-1.3,0.2c-1.1-0.2-2.6-2.5-2.4-3.8c0.1-0.9,1.7-0.9,1.7-0.9
		c-0.9-1.3-2.1-2.4-3.5-3l0.6-2.4l-0.1-0.1L21,8.4c-1.1-0.4-2.3-0.6-3.5-0.5c-0.6,0-1.4,0.1-2,0.2l-2.2-2.8l0,0l-0.1,0.1l1.3,2.9
		c-3.6,1.4-5.6,4.9-5.6,8.4c7.1-1.4,16.6,0.9,18.6,2C27.4,18,27.4,17.1,27.2,16.2z M17.8,15.7c-2.6-0.3-2.9-1.9-2.9-2.8
		c0.1-2.1,1.3-2.3,2.6-2.3c1.6,0,3.9,0.4,4.6,1.6C22.6,13.5,19.8,15.9,17.8,15.7z"/>
	<path class="st0" d="M17.5,35C7.9,35,0,27.1,0,17.5S7.9,0,17.5,0S35,7.9,35,17.5l0,0C35,27.1,27.1,35,17.5,35z M10,31.5
		c0.3,0.1,0.6,0.3,0.9,0.4H11l0.1,0.1l0.1,0.1l0.1,0.1h0.1c1.7-0.4,3.4-0.6,5.1-0.8h0.4c1.1-0.1,2.4-0.1,3.6-0.1h0.4
		c0.8,0,1.6,0,2.4,0.1c0.3,0,0.5,0,0.8,0.1c0.4,0,0.7,0.1,1.1,0.1h0.1h0.1h0.1c0.1-0.1,0.2-0.1,0.4-0.2c0.1-0.1,0.2-0.1,0.4-0.2
		c0.1-0.1,0.3-0.1,0.4-0.3l0.1-0.1l0.5-0.4l-0.7-0.1c-0.9-0.1-1.8-0.1-2.6-0.2C23.1,30,22.2,30,21.3,30h-0.4c-1.2,0-2.4,0.1-3.6,0.1
		c-0.4,0-0.7,0.1-1,0.1c-0.1,0-0.1,0-0.3,0c-1.9,0.2-3.6,0.5-5.5,0.9c0.1-0.5,0-1.4-0.8-2.6l1.6-0.4l0.1-0.1c0.4-0.2,0.8-0.6,1-1
		c0.4-0.6,0.7-1.6,0.5-3.1c-0.1-1.2-0.5-2.1-1-2.8c-0.4-0.5-1.1-0.9-1.8-0.9c-0.1,0-0.1,0-0.2,0c-0.1,0-0.2,0-0.4,0.1
		c0-0.1,0-0.1,0-0.1c1.6-0.4,3.9-0.6,6.4-0.6c4.1,0,8.2,0.6,11.3,1.7c0.5,2.6,0.8,5.1,1,7.7v0.5l0.4-0.3c0.2-0.2,0.5-0.5,0.7-0.7
		l0.1-0.1v-0.1c-0.1-1.7-0.4-3.4-0.6-5c0.9,0.4,1.6,0.8,2.4,1.4c0.1,0.1,0.3,0.2,0.4,0.3l0.2,0.1l0.1-0.2c1.1-2.2,1.7-4.6,1.6-7.1
		c0-8.8-7.1-15.9-15.9-15.9s-16,7-16,15.7c0,2.4,0.5,4.7,1.6,6.9l0.1,0.3l0.2-0.1c1.2-1,3.6-2.6,6.4-3H10c0.6,0,1.4,0.7,1.6,2.6
		c0.2,2-0.7,2.6-0.9,2.7l-2.1,0.6c-0.4-0.3-1.1-0.9-1.4-0.9l0,0H6.7L7,27.1C9.4,30,9.1,31,9.1,31L9,31.1l0.1,0.1
		c0.2,0.1,0.4,0.3,0.6,0.4l0,0L10,31.5L10,31.5z"/>
</g>
</svg>
